<?xml version="1.0" encoding="UTF-8" standalone="no"?>
<!-- Created with Inkscape (http://www.inkscape.org/) -->

<svg
   xmlns:dc="http://purl.org/dc/elements/1.1/"
   xmlns:cc="http://creativecommons.org/ns#"
   xmlns:rdf="http://www.w3.org/1999/02/22-rdf-syntax-ns#"
   xmlns:svg="http://www.w3.org/2000/svg"
   xmlns="http://www.w3.org/2000/svg"
   version="1.1"
   width="463.19272"
   height="90.000023"
   viewBox="0 0 463.19271 90.000019"
   id="Layer_1"
   xml:space="preserve"><metadata
   id="metadata13"><rdf:RDF><cc:Work
       rdf:about=""><dc:format>image/svg+xml</dc:format><dc:type
         rdf:resource="http://purl.org/dc/dcmitype/StillImage" /><dc:title></dc:title></cc:Work></rdf:RDF></metadata><defs
   id="defs11"><linearGradient
     id="linearGradient5202"><stop
       id="stop5204"
       style="stop-color:#000000;stop-opacity:1"
       offset="0" /></linearGradient></defs>
<g
   transform="translate(-527.82889,-445.66493)"
   id="g3">
	<path
   d="m 542.338,558.088 -9.799,-14.398 -30.996,9.199 19.798,-25.597 -17.798,-26.597 29.996,10.599 19.998,-24.997 -0.4,31.596 30.796,11.398 -31.396,9.398 -0.799,19.348 -9.4,0.051 z"
   id="path5"
   style="fill:none" />
	
<g
   id="g3813"><path
     d="m 579.00787,535.66495 11.15425,-0.0599 1.02188,-24.7774 39.05152,-11.68905 -38.30411,-14.17866 0.49839,-39.29501 -24.88571,31.10581 -37.25519,-13.16318 22.11392,33.04403 -24.57393,31.77208 38.47681,-11.41971 z"
     id="path7"
     style="fill:#3016B0;fill-opacity:1;stroke:none" /><path
     d="m 666.87848,504.1551 c 0,0 0,-6.40657 -0.009,-18.10182 l 18.13736,-5.42919 -17.79034,-6.58504 0.23154,-18.25066 -11.55815,14.44717 -17.30305,-6.1138 10.27079,15.3474 -11.41342,14.75657 17.87059,-5.30402 z"
     id="path3774"
     style="fill:#3016B0;fill-opacity:1;stroke:none" /><path
     d="m 919.00202,500.2941 c 0,0 0,-6.40657 -0.009,-18.10182 l 18.13736,-5.42919 -17.79034,-6.58504 0.23154,-18.25066 -11.55815,14.44717 -17.30305,-6.1138 10.27079,15.3474 -11.41342,14.75657 17.87059,-5.30402 z"
     id="path3799"
     style="fill:#3016B0;fill-opacity:1;stroke:none" /><path
     d="m 784.6391,510.54892 c 0,0 0,-6.40657 -0.009,-18.10182 l 18.13736,-5.42919 -17.79034,-6.58504 0.23154,-18.25066 -11.55815,14.44717 -17.30305,-6.1138 10.27079,15.3474 -11.41342,14.75657 17.87059,-5.30402 z"
     id="path3801"
     style="fill:#3016B0;fill-opacity:1;stroke:none" /><path
     d="m 727.27233,482.53348 c 0,0 0,-3.83692 -0.009,-10.84126 l 10.86253,-3.25152 -10.65477,-3.94382 0.13877,-10.9304 -6.92227,8.65248 -10.36284,-3.66165 6.15118,9.19165 -6.83551,8.8378 10.70276,-3.17661 z"
     id="path3807"
     style="fill:#3016B0;fill-opacity:1;stroke:none" /><path
     d="m 980.16808,509.94661 c 0,0 0,-3.83692 -0.009,-10.84126 l 10.86253,-3.25152 -10.65477,-3.94382 0.13877,-10.9304 -6.92227,8.65248 -10.36284,-3.66165 6.15118,9.19165 -6.83551,8.8378 10.70276,-3.17661 z"
     id="path3809"
     style="fill:#3016B0;fill-opacity:1;stroke:none" /><path
     d="m 841.17194,505.17441 c 0,0 0,-3.83692 -0.009,-10.84126 l 10.86253,-3.25152 -10.65477,-3.94382 0.13877,-10.9304 -6.92227,8.65248 -10.36284,-3.66165 6.15118,9.19165 -6.83551,8.8378 10.70276,-3.17661 z"
     id="path3811"
     style="fill:#3016B0;fill-opacity:1;stroke:none" /></g></g>
</svg>
