<?xml version="1.0" encoding="utf-8"?>
<!-- Generator: Adobe Illustrator 15.1.0, SVG Export Plug-In . SVG Version: 6.00 Build 0)  -->
<!DOCTYPE svg PUBLIC "-//W3C//DTD SVG 1.1//EN" "http://www.w3.org/Graphics/SVG/1.1/DTD/svg11.dtd">
<svg version="1.1" id="Layer_1" xmlns="http://www.w3.org/2000/svg" xmlns:xlink="http://www.w3.org/1999/xlink" x="0px" y="0px"
	 width="24px" height="24px" viewBox="0 0 24 24" enable-background="new 0 0 24 24" xml:space="preserve">
<path fill="none" stroke="#6D6E71" stroke-miterlimit="10" d="M0.5,5.217v15.471c0,0,1.768,1.896,4.982,0.213
	c3.214-1.685,1.811-3.86,1.928-4.07c0.117-0.211,0.292-2.037,0.292-2.037l1.286-0.911c0,0,0.818-0.49,0.351-1.257
	c-0.468-0.774-2.104-3.93-2.104-3.93S6.944,7.993,7.002,7.361c0.059-0.63-1.695-4.138-3.448-4.699C1.8,2.101,0.5,1.998,0.5,1.998
	V5.217z"/>
<path fill="none" stroke="#6D6E71" stroke-miterlimit="10" d="M4.619,15.852c0,0,0.92,0.461,2.683,0.613"/>
<ellipse fill="none" stroke="#6D6E71" stroke-miterlimit="10" cx="4.58" cy="9.951" rx="0.882" ry="0.92"/>
<path fill="none" stroke="#6D6E71" stroke-miterlimit="10" d="M23.502,5.381v15.237c-0.505,0.686-2.002,1.426-4.916,0.208
	c-3.334-1.393-1.812-3.826-1.928-4.037c-0.117-0.206-0.293-2.018-0.293-2.018l-1.286-0.904c0,0-0.817-0.485-0.351-1.249
	c0.468-0.767,2.106-3.898,2.106-3.898s0.289-0.696,0.232-1.322c-0.059-0.626,1.695-4.106,3.447-4.662
	c1.755-0.557,2.987-0.557,2.987-0.557V5.381z"/>
<path fill="none" stroke="#6D6E71" stroke-miterlimit="10" d="M19.452,15.876c0,0-0.922,0.457-2.685,0.61"/>
<ellipse fill="none" stroke="#6D6E71" stroke-miterlimit="10" cx="19.49" cy="9.997" rx="0.88" ry="0.917"/>
</svg>
